<?xml version="1.0" standalone="no"?>
<!DOCTYPE svg PUBLIC "-//W3C//DTD SVG 20010904//EN"
 "http://www.w3.org/TR/2001/REC-SVG-20010904/DTD/svg10.dtd">
<svg version="1.0" xmlns="http://www.w3.org/2000/svg"
 height="200" viewBox="0 0 3662.000000 1688.000000"
 preserveAspectRatio="xMidYMid meet">

<g transform="translate(0.000000,1688.000000) scale(0.100000,-0.100000)"
fill="#000000" stroke="none">
<path fill="currentColor" d="M11790 12466 c-203 -26 -311 -67 -385 -147 -87 -93 -94 -204 -31
-452 33 -127 68 -230 211 -626 116 -321 236 -814 556 -2281 304 -1394 499
-2197 658 -2717 179 -580 412 -843 700 -788 81 16 338 80 406 101 102 33 196
164 250 349 67 232 97 531 140 1415 37 746 130 1843 191 2230 59 383 116 591
276 1010 159 415 213 605 239 829 33 289 -50 539 -203 615 -92 46 -165 30
-248 -54 -71 -71 -97 -121 -159 -305 -99 -295 -163 -551 -292 -1175 -120 -582
-129 -614 -269 -1050 -93 -293 -133 -447 -155 -602 -21 -150 -19 -254 11 -538
30 -291 42 -625 25 -726 -14 -81 -61 -185 -98 -214 -21 -16 -93 -29 -93 -16 0
2 -11 58 -25 126 -38 185 -59 318 -119 740 -58 399 -92 600 -202 1175 -156
819 -210 1211 -221 1615 l-6 226 33 148 c28 128 32 161 28 249 -5 92 -9 112
-47 202 -58 135 -135 281 -179 340 -45 58 -138 116 -323 201 -238 109 -295
126 -439 130 -69 2 -172 -3 -230 -10z"/>
<path fill="currentColor" d="M20720 12264 c-74 -7 -234 -27 -354 -44 -255 -35 -246 -30 -306 -155
-76 -158 -117 -343 -130 -590 -6 -99 -21 -286 -35 -415 -41 -399 -48 -559 -42
-1018 7 -596 26 -837 162 -2082 64 -589 77 -727 110 -1180 38 -523 55 -721 66
-763 25 -94 118 -148 270 -155 148 -7 272 28 352 99 68 59 82 115 137 535 16
127 45 323 64 435 19 112 58 380 86 594 29 215 63 432 76 484 44 176 114 283
193 297 85 16 238 -45 364 -145 212 -169 429 -486 510 -747 28 -87 42 -203 52
-409 13 -276 54 -446 138 -571 25 -38 107 -136 182 -219 75 -82 147 -168 160
-190 13 -22 40 -96 60 -165 75 -258 88 -296 117 -354 40 -79 107 -149 171
-177 70 -31 206 -33 255 -4 81 48 114 141 120 335 5 174 -13 322 -64 518 -44
172 -68 221 -212 424 -122 170 -190 288 -213 368 -10 33 -14 130 -14 370 0
375 9 320 -136 858 -73 270 -84 302 -118 347 -54 70 -61 87 -61 143 0 102 85
277 280 578 389 598 444 712 470 975 53 543 -265 1181 -754 1511 -199 133
-298 167 -656 223 -124 20 -232 38 -241 40 -9 3 -30 28 -47 55 -34 55 -76 84
-174 123 -203 81 -492 106 -838 71z m924 -1029 c229 -35 594 -197 821 -365 96
-72 115 -105 140 -246 15 -87 19 -307 6 -353 -4 -16 -30 -37 -78 -65 -74 -42
-107 -74 -305 -305 -108 -125 -142 -178 -192 -296 -111 -262 -144 -295 -387
-389 -228 -88 -450 -125 -496 -83 -52 46 -67 210 -60 647 6 346 19 542 57 828
23 169 61 371 86 444 19 57 89 139 141 163 79 38 125 41 267 20z"/>
<path fill="currentColor" d="M9140 12189 c-162 -32 -327 -200 -428 -440 -148 -347 -365 -1154
-476 -1769 -122 -676 -182 -1241 -271 -2555 -47 -701 -49 -721 -100 -1032 -66
-397 -78 -519 -72 -708 4 -117 10 -181 26 -238 64 -241 209 -347 476 -349 311
-2 625 161 726 376 l30 65 -11 888 c-6 488 -16 917 -21 953 -27 172 -18 710
17 1108 6 71 9 74 129 131 253 120 457 98 625 -68 81 -80 116 -130 180 -259
139 -279 194 -495 286 -1133 58 -405 86 -554 140 -743 132 -458 386 -847 642
-984 32 -17 93 -41 137 -53 107 -29 273 -23 419 15 329 86 526 294 526 557 0
211 -139 618 -428 1254 -188 415 -234 501 -321 610 -44 54 -92 121 -106 146
-55 103 -194 506 -390 1139 -244 787 -359 1098 -551 1487 -146 294 -308 554
-525 840 -59 78 -117 159 -127 180 -11 21 -36 99 -55 174 -19 75 -46 158 -60
185 -54 107 -156 189 -272 219 -65 17 -79 17 -145 4z m125 -2023 c42 -44 77
-153 151 -470 31 -131 62 -256 69 -277 17 -47 12 -49 -94 -49 -164 0 -263 90
-307 277 -21 90 -15 372 10 449 24 78 49 104 98 104 33 0 46 -6 73 -34z"/>
<path fill="currentColor" d="M16018 12170 c-165 -28 -400 -158 -474 -262 -41 -56 -57 -109 -56
-178 1 -73 24 -141 111 -327 91 -193 118 -288 132 -463 9 -107 9 -170 0 -271
-18 -196 -36 -275 -150 -669 -89 -308 -95 -352 -95 -615 0 -207 4 -258 37
-510 80 -616 77 -767 -28 -1395 -25 -146 -49 -305 -55 -355 -33 -302 17 -587
171 -973 32 -81 57 -164 69 -230 12 -65 28 -119 44 -146 76 -129 260 -210 596
-263 92 -14 176 -18 425 -18 571 0 675 35 1215 410 332 229 486 315 618 344
29 6 135 11 235 11 100 0 212 5 249 10 198 29 299 124 362 343 91 314 23 668
-145 755 l-47 24 -1288 -109 c-875 -75 -1291 -106 -1296 -99 -39 58 -14 746
37 1050 22 129 44 172 98 196 48 21 213 40 357 40 191 0 280 32 435 157 185
149 363 351 396 450 28 86 -15 230 -88 294 -78 68 -219 107 -338 94 -77 -9
-202 -49 -246 -78 -19 -12 -53 -54 -75 -92 -74 -123 -183 -186 -326 -187 -73
0 -164 15 -200 34 -15 7 -18 22 -18 77 0 118 30 207 144 432 118 232 148 312
241 642 144 507 212 675 311 766 132 120 304 175 699 221 244 28 414 57 510
87 172 54 423 203 557 331 138 132 173 251 103 351 -45 66 -116 95 -243 99
-138 6 -245 -9 -562 -76 l-265 -57 -420 0 c-469 -1 -429 4 -628 -79 -229 -97
-311 -86 -562 69 -247 153 -380 193 -547 165z"/>
<path fill="currentColor" d="M25554 11975 c-214 -31 -487 -116 -644 -201 -188 -103 -317 -247
-455 -506 -105 -200 -195 -430 -276 -712 -22 -76 -105 -335 -184 -575 -202
-614 -255 -801 -295 -1037 -37 -216 -29 -276 75 -539 77 -197 85 -224 85 -303
0 -50 -11 -97 -50 -214 -75 -225 -82 -331 -44 -643 61 -492 291 -1281 482
-1649 64 -125 200 -267 310 -324 210 -109 618 -205 1127 -264 65 -8 231 -13
410 -13 328 0 411 9 542 62 54 21 75 37 131 102 154 174 208 215 389 288 230
92 293 155 418 415 175 365 205 661 140 1382 -15 158 -24 298 -21 310 8 32 62
58 241 114 88 28 181 65 207 81 118 75 135 190 51 355 -90 178 -389 358 -780
470 -186 53 -295 69 -488 68 -518 -1 -944 -169 -1067 -421 -31 -62 -33 -72
-33 -171 1 -94 4 -113 33 -185 47 -120 121 -224 252 -355 120 -121 218 -200
280 -227 19 -8 102 -32 185 -54 82 -22 172 -52 200 -68 95 -53 149 -175 127
-287 -34 -167 -263 -656 -403 -859 -110 -160 -340 -285 -524 -285 -240 0 -465
171 -600 455 -115 244 -150 521 -105 825 12 74 30 196 41 270 30 198 28 365
-6 570 -26 156 -27 177 -22 400 6 242 23 405 71 670 86 478 230 963 389 1311
114 250 448 606 663 706 55 26 67 28 189 27 116 -1 145 -5 265 -37 74 -20 207
-59 295 -87 234 -75 345 -100 445 -100 98 0 157 21 187 66 26 41 24 160 -5
238 -45 122 -71 143 -370 300 -499 260 -1109 529 -1389 612 -111 33 -313 41
-469 19z"/>
<path fill="currentColor" d="M4744 11770 c-142 -20 -364 -183 -477 -350 -70 -103 -77 -145 -77
-459 0 -318 -1 -311 101 -583 131 -347 233 -1037 270 -1812 16 -347 6 -1119
-20 -1541 -43 -699 -48 -1056 -21 -1415 13 -165 47 -406 71 -500 69 -269 271
-477 561 -578 90 -32 117 -37 218 -40 l115 -3 135 80 c224 134 392 268 820
651 118 105 256 222 305 259 100 75 193 163 274 261 75 89 214 304 286 441 61
116 76 134 238 284 56 52 68 70 82 120 44 149 -24 334 -137 380 -115 47 -312
0 -505 -121 -117 -73 -174 -124 -513 -459 -439 -434 -504 -482 -710 -530 -89
-20 -136 -20 -145 3 -29 73 -14 329 57 962 65 583 65 608 5 902 -64 307 -63
322 13 546 55 165 61 191 85 381 67 545 110 1174 135 1996 6 165 16 343 24
395 30 192 14 374 -42 488 -32 65 -106 136 -175 167 -104 48 -159 56 -422 65
-137 5 -304 11 -370 14 -66 3 -148 1 -181 -4z"/>
<path fill="currentColor" d="M29190 11574 c-96 -26 -166 -90 -212 -194 -61 -137 -98 -539 -118
-1286 -38 -1439 -58 -1669 -210 -2414 -122 -597 -182 -939 -250 -1405 -22
-154 -52 -338 -66 -410 -59 -296 -179 -577 -335 -782 -40 -53 -49 -119 -25
-190 16 -47 19 -50 99 -90 45 -22 156 -84 245 -137 368 -218 511 -263 802
-254 154 5 183 13 441 111 185 71 400 63 881 -32 512 -102 692 -106 1032 -25
130 31 325 96 453 150 l91 38 21 71 c30 100 58 241 77 385 22 173 15 462 -14
571 -52 193 -159 309 -285 309 -99 0 -255 -64 -522 -215 -73 -41 -165 -90
-206 -110 -124 -59 -180 -53 -714 81 -219 55 -327 77 -399 82 -94 7 -99 9
-127 39 -42 47 -54 102 -52 233 1 81 9 150 28 235 20 94 28 167 35 335 23 518
37 627 93 740 29 59 38 68 92 95 51 26 71 30 135 29 64 0 93 -7 190 -45 105
-40 122 -44 200 -43 279 3 540 252 566 541 11 122 -34 279 -90 314 -80 50
-181 66 -496 79 -282 12 -410 29 -449 58 -58 43 -100 173 -127 392 -37 310 -9
1013 47 1152 27 66 161 64 424 -7 368 -98 414 -108 495 -102 41 3 147 22 235
43 135 32 178 38 277 38 l116 1 186 -93 c211 -105 280 -132 343 -132 58 0 90
18 147 81 53 59 68 102 140 387 47 187 54 251 35 331 -43 189 -222 342 -471
405 -102 25 -241 36 -613 46 -374 10 -448 17 -620 55 -183 41 -331 94 -495
178 -483 247 -583 295 -675 325 -171 54 -256 63 -355 36z"/>
</g>
</svg>
